<?xml version="1.0" standalone="no"?><!DOCTYPE svg PUBLIC "-//W3C//DTD SVG 1.1//EN" "http://www.w3.org/Graphics/SVG/1.1/DTD/svg11.dtd"><svg t="1704946460052" class="icon" viewBox="0 0 1024 1024" version="1.1" xmlns="http://www.w3.org/2000/svg" p-id="28549" xmlns:xlink="http://www.w3.org/1999/xlink" width="200" height="200"><path d="M347.6274 27.040634a513.608751 513.608751 0 0 1 621.447489 252.673386 242.51041 242.51041 0 0 1-50.373878 2.559994l-362.560118 0.802998a242.072411 242.072411 0 0 0-129.334686 12.794969 233.225433 233.225433 0 0 0-133.208676 138.253663 237.539422 237.539422 0 0 0 12.939969 186.580547C232.842679 491.299505 156.806864 363.206817 82.160045 234.45813A514.04675 514.04675 0 0 1 347.6274 27.040634z" fill="#D94F42" p-id="28550"></path><path d="M17.748202 377.609782a506.223769 506.223769 0 0 1 63.606845-143.151652c74.719818 128.822687 150.682634 256.914375 224.379455 386.249061a232.933434 232.933434 0 0 0 320.155221 94.45977 250.553391 250.553391 0 0 0 76.108815-67.774835c-71.137827 125.605695-143.299652 250.626391-214.729478 376.012085A511.780756 511.780756 0 0 1 4.735233 582.469284a524.355725 524.355725 0 0 1 12.939969-204.712503z" fill="#19A05E" p-id="28551"></path><path d="M426.148209 295.871981a242.145411 242.145411 0 0 1 129.334685-12.794969A237.173423 237.173423 0 0 1 713.769509 395.961737a233.956431 233.956431 0 0 1-11.624971 251.430389 250.626391 250.626391 0 0 1-76.109815 67.773835 232.933434 232.933434 0 0 1-320.154222-94.45977 237.466423 237.466423 0 0 1-12.940968-186.579547 233.225433 233.225433 0 0 1 133.209676-138.254663m54.613867 32.82692A185.995548 185.995548 0 1 0 656.229649 630.064168a186.507546 186.507546 0 0 0-38.821905-271.46234 186.872546 186.872546 0 0 0-136.572668-29.829927z" fill="#F2F2F2" p-id="28552"></path><path d="M555.555894 283.077012q181.316559 0 362.559118-0.803998a242.145411 242.145411 0 0 0 50.374878-2.558994 513.681751 513.681751 0 0 1-59.073856 555.28265 511.780756 511.780756 0 0 1-274.607333 174.224576 527.353718 527.353718 0 0 1-147.392641 14.255965c71.429826-125.385695 143.590651-250.406391 214.728478-376.012085a233.956431 233.956431 0 0 0 11.624971-251.430389 237.173423 237.173423 0 0 0-158.213615-112.957725z" fill="#FDCA41" p-id="28553"></path><path d="M480.763076 328.699901A185.776548 185.776548 0 0 1 698.049548 508.259464a186.069548 186.069548 0 0 1-339.529175 108.863735 186.069548 186.069548 0 0 1 122.241703-288.425298z" fill="#4B8BF5" p-id="28554"></path></svg>